<mxfile host="app.diagrams.net" modified="2021-09-09T16:39:16.025Z" agent="5.0 (Windows NT 6.1; Win64; x64) AppleWebKit/537.36 (KHTML, like Gecko) Chrome/92.0.4515.159 Safari/537.36" etag="ICxqTrql52cABR9kOHgR" version="15.1.4" type="github">
  <diagram id="5rp1PpoF8cTKow46u9iF" name="Page-1">
    <mxGraphModel dx="1695" dy="478" grid="1" gridSize="10" guides="1" tooltips="1" connect="1" arrows="1" fold="1" page="1" pageScale="1" pageWidth="827" pageHeight="1169" math="0" shadow="0">
      <root>
        <mxCell id="0" />
        <mxCell id="1" parent="0" />
        <mxCell id="DbwWn1ZqxJle5tNyQNrk-4" value="" style="edgeStyle=orthogonalEdgeStyle;rounded=0;orthogonalLoop=1;jettySize=auto;html=1;" edge="1" parent="1" source="DbwWn1ZqxJle5tNyQNrk-1">
          <mxGeometry relative="1" as="geometry">
            <mxPoint x="130" y="180" as="targetPoint" />
            <Array as="points">
              <mxPoint x="130" y="160" />
              <mxPoint x="130" y="160" />
            </Array>
          </mxGeometry>
        </mxCell>
        <mxCell id="DbwWn1ZqxJle5tNyQNrk-1" value="&lt;font style=&quot;vertical-align: inherit&quot;&gt;&lt;font style=&quot;vertical-align: inherit&quot;&gt;Início&lt;/font&gt;&lt;/font&gt;" style="strokeWidth=2;html=1;shape=mxgraph.flowchart.start_1;whiteSpace=wrap;" vertex="1" parent="1">
          <mxGeometry x="80" y="40" width="100" height="60" as="geometry" />
        </mxCell>
        <mxCell id="DbwWn1ZqxJle5tNyQNrk-11" value="" style="edgeStyle=orthogonalEdgeStyle;rounded=0;orthogonalLoop=1;jettySize=auto;html=1;" edge="1" parent="1" source="DbwWn1ZqxJle5tNyQNrk-5" target="DbwWn1ZqxJle5tNyQNrk-10">
          <mxGeometry relative="1" as="geometry" />
        </mxCell>
        <mxCell id="DbwWn1ZqxJle5tNyQNrk-5" value="&lt;font style=&quot;vertical-align: inherit&quot;&gt;&lt;font style=&quot;vertical-align: inherit&quot;&gt;Nome do evento&lt;/font&gt;&lt;/font&gt;" style="strokeWidth=2;html=1;shape=mxgraph.flowchart.display;whiteSpace=wrap;" vertex="1" parent="1">
          <mxGeometry x="80" y="180" width="100" height="60" as="geometry" />
        </mxCell>
        <mxCell id="DbwWn1ZqxJle5tNyQNrk-10" value="" style="shape=waypoint;size=6;pointerEvents=1;points=[];fillColor=#ffffff;resizable=0;rotatable=0;perimeter=centerPerimeter;snapToPoint=1;strokeWidth=2;" vertex="1" parent="1">
          <mxGeometry x="110" y="320" width="40" height="40" as="geometry" />
        </mxCell>
        <mxCell id="DbwWn1ZqxJle5tNyQNrk-17" value="" style="edgeStyle=orthogonalEdgeStyle;rounded=0;orthogonalLoop=1;jettySize=auto;html=1;" edge="1" parent="1" source="DbwWn1ZqxJle5tNyQNrk-12">
          <mxGeometry relative="1" as="geometry">
            <mxPoint x="130" y="470" as="targetPoint" />
            <Array as="points">
              <mxPoint x="135" y="470" />
            </Array>
          </mxGeometry>
        </mxCell>
        <mxCell id="DbwWn1ZqxJle5tNyQNrk-12" value="&lt;font style=&quot;vertical-align: inherit&quot;&gt;&lt;font style=&quot;vertical-align: inherit&quot;&gt;Nome do evento&lt;/font&gt;&lt;/font&gt;" style="shape=parallelogram;html=1;strokeWidth=2;perimeter=parallelogramPerimeter;whiteSpace=wrap;rounded=1;arcSize=12;size=0.23;" vertex="1" parent="1">
          <mxGeometry x="60" y="340" width="150" height="60" as="geometry" />
        </mxCell>
        <mxCell id="DbwWn1ZqxJle5tNyQNrk-21" value="" style="edgeStyle=orthogonalEdgeStyle;rounded=0;orthogonalLoop=1;jettySize=auto;html=1;" edge="1" parent="1" source="DbwWn1ZqxJle5tNyQNrk-18">
          <mxGeometry relative="1" as="geometry">
            <mxPoint x="130" y="610" as="targetPoint" />
          </mxGeometry>
        </mxCell>
        <mxCell id="DbwWn1ZqxJle5tNyQNrk-18" value="Digitar data" style="strokeWidth=2;html=1;shape=mxgraph.flowchart.display;whiteSpace=wrap;" vertex="1" parent="1">
          <mxGeometry x="80" y="470" width="100" height="60" as="geometry" />
        </mxCell>
        <mxCell id="DbwWn1ZqxJle5tNyQNrk-24" value="" style="edgeStyle=orthogonalEdgeStyle;rounded=0;orthogonalLoop=1;jettySize=auto;html=1;" edge="1" parent="1" source="DbwWn1ZqxJle5tNyQNrk-22">
          <mxGeometry relative="1" as="geometry">
            <mxPoint x="130" y="760" as="targetPoint" />
          </mxGeometry>
        </mxCell>
        <mxCell id="DbwWn1ZqxJle5tNyQNrk-22" value="Data" style="shape=parallelogram;html=1;strokeWidth=2;perimeter=parallelogramPerimeter;whiteSpace=wrap;rounded=1;arcSize=12;size=0.23;" vertex="1" parent="1">
          <mxGeometry x="80" y="620" width="100" height="60" as="geometry" />
        </mxCell>
        <mxCell id="DbwWn1ZqxJle5tNyQNrk-27" value="" style="edgeStyle=orthogonalEdgeStyle;rounded=0;orthogonalLoop=1;jettySize=auto;html=1;" edge="1" parent="1" source="DbwWn1ZqxJle5tNyQNrk-25">
          <mxGeometry relative="1" as="geometry">
            <mxPoint x="310" y="840" as="targetPoint" />
          </mxGeometry>
        </mxCell>
        <mxCell id="DbwWn1ZqxJle5tNyQNrk-31" value="" style="edgeStyle=orthogonalEdgeStyle;rounded=0;orthogonalLoop=1;jettySize=auto;html=1;" edge="1" parent="1" source="DbwWn1ZqxJle5tNyQNrk-25">
          <mxGeometry relative="1" as="geometry">
            <mxPoint x="-50" y="840" as="targetPoint" />
          </mxGeometry>
        </mxCell>
        <mxCell id="DbwWn1ZqxJle5tNyQNrk-35" value="" style="edgeStyle=orthogonalEdgeStyle;rounded=0;orthogonalLoop=1;jettySize=auto;html=1;" edge="1" parent="1" source="DbwWn1ZqxJle5tNyQNrk-25">
          <mxGeometry relative="1" as="geometry">
            <mxPoint x="130" y="1030" as="targetPoint" />
          </mxGeometry>
        </mxCell>
        <mxCell id="DbwWn1ZqxJle5tNyQNrk-25" value="Data do evento é posterior a data atual" style="strokeWidth=2;html=1;shape=mxgraph.flowchart.decision;whiteSpace=wrap;" vertex="1" parent="1">
          <mxGeometry x="60" y="770" width="140" height="140" as="geometry" />
        </mxCell>
        <mxCell id="DbwWn1ZqxJle5tNyQNrk-28" value="Data inválida" style="strokeWidth=2;html=1;shape=mxgraph.flowchart.display;whiteSpace=wrap;" vertex="1" parent="1">
          <mxGeometry x="320" y="810" width="100" height="60" as="geometry" />
        </mxCell>
        <mxCell id="DbwWn1ZqxJle5tNyQNrk-29" value="Não" style="text;html=1;align=center;verticalAlign=middle;resizable=0;points=[];autosize=1;strokeColor=none;fillColor=none;" vertex="1" parent="1">
          <mxGeometry x="220" y="800" width="40" height="20" as="geometry" />
        </mxCell>
        <mxCell id="DbwWn1ZqxJle5tNyQNrk-32" value="Evento agendado" style="strokeWidth=2;html=1;shape=mxgraph.flowchart.display;whiteSpace=wrap;" vertex="1" parent="1">
          <mxGeometry x="-140" y="800" width="100" height="60" as="geometry" />
        </mxCell>
        <mxCell id="DbwWn1ZqxJle5tNyQNrk-33" value="Sim" style="text;html=1;align=center;verticalAlign=middle;resizable=0;points=[];autosize=1;strokeColor=none;fillColor=none;" vertex="1" parent="1">
          <mxGeometry x="-10" y="800" width="40" height="20" as="geometry" />
        </mxCell>
        <mxCell id="DbwWn1ZqxJle5tNyQNrk-38" value="" style="edgeStyle=orthogonalEdgeStyle;rounded=0;orthogonalLoop=1;jettySize=auto;html=1;" edge="1" parent="1" source="DbwWn1ZqxJle5tNyQNrk-36">
          <mxGeometry relative="1" as="geometry">
            <mxPoint x="130" y="1170" as="targetPoint" />
          </mxGeometry>
        </mxCell>
        <mxCell id="DbwWn1ZqxJle5tNyQNrk-36" value="Informar idade" style="strokeWidth=2;html=1;shape=mxgraph.flowchart.display;whiteSpace=wrap;" vertex="1" parent="1">
          <mxGeometry x="80" y="1030" width="100" height="60" as="geometry" />
        </mxCell>
        <mxCell id="DbwWn1ZqxJle5tNyQNrk-41" value="" style="edgeStyle=orthogonalEdgeStyle;rounded=0;orthogonalLoop=1;jettySize=auto;html=1;" edge="1" parent="1" source="DbwWn1ZqxJle5tNyQNrk-39">
          <mxGeometry relative="1" as="geometry">
            <mxPoint x="130" y="1320" as="targetPoint" />
          </mxGeometry>
        </mxCell>
        <mxCell id="DbwWn1ZqxJle5tNyQNrk-39" value="Idade" style="shape=parallelogram;html=1;strokeWidth=2;perimeter=parallelogramPerimeter;whiteSpace=wrap;rounded=1;arcSize=12;size=0.23;" vertex="1" parent="1">
          <mxGeometry x="80" y="1180" width="100" height="60" as="geometry" />
        </mxCell>
        <mxCell id="DbwWn1ZqxJle5tNyQNrk-44" value="" style="edgeStyle=orthogonalEdgeStyle;rounded=0;orthogonalLoop=1;jettySize=auto;html=1;" edge="1" parent="1" source="DbwWn1ZqxJle5tNyQNrk-42">
          <mxGeometry relative="1" as="geometry">
            <mxPoint x="310" y="1400" as="targetPoint" />
          </mxGeometry>
        </mxCell>
        <mxCell id="DbwWn1ZqxJle5tNyQNrk-48" value="" style="edgeStyle=orthogonalEdgeStyle;rounded=0;orthogonalLoop=1;jettySize=auto;html=1;" edge="1" parent="1" source="DbwWn1ZqxJle5tNyQNrk-42">
          <mxGeometry relative="1" as="geometry">
            <mxPoint x="-50" y="1400" as="targetPoint" />
          </mxGeometry>
        </mxCell>
        <mxCell id="DbwWn1ZqxJle5tNyQNrk-42" value="Participante é maior de 18 anos" style="strokeWidth=2;html=1;shape=mxgraph.flowchart.decision;whiteSpace=wrap;" vertex="1" parent="1">
          <mxGeometry x="60" y="1330" width="140" height="140" as="geometry" />
        </mxCell>
        <mxCell id="DbwWn1ZqxJle5tNyQNrk-45" value="Cadastro não permitido pela idade" style="strokeWidth=2;html=1;shape=mxgraph.flowchart.display;whiteSpace=wrap;" vertex="1" parent="1">
          <mxGeometry x="314" y="1370" width="100" height="60" as="geometry" />
        </mxCell>
        <mxCell id="DbwWn1ZqxJle5tNyQNrk-46" value="Não" style="text;html=1;align=center;verticalAlign=middle;resizable=0;points=[];autosize=1;strokeColor=none;fillColor=none;" vertex="1" parent="1">
          <mxGeometry x="220" y="1370" width="40" height="20" as="geometry" />
        </mxCell>
        <mxCell id="DbwWn1ZqxJle5tNyQNrk-51" value="" style="edgeStyle=orthogonalEdgeStyle;rounded=0;orthogonalLoop=1;jettySize=auto;html=1;" edge="1" parent="1" source="DbwWn1ZqxJle5tNyQNrk-49">
          <mxGeometry relative="1" as="geometry">
            <mxPoint x="-120" y="1510" as="targetPoint" />
          </mxGeometry>
        </mxCell>
        <mxCell id="DbwWn1ZqxJle5tNyQNrk-49" value="Cadastro permitido" style="strokeWidth=2;html=1;shape=mxgraph.flowchart.display;whiteSpace=wrap;" vertex="1" parent="1">
          <mxGeometry x="-170" y="1370" width="100" height="60" as="geometry" />
        </mxCell>
        <mxCell id="DbwWn1ZqxJle5tNyQNrk-54" value="" style="edgeStyle=orthogonalEdgeStyle;rounded=0;orthogonalLoop=1;jettySize=auto;html=1;" edge="1" parent="1" source="DbwWn1ZqxJle5tNyQNrk-52">
          <mxGeometry relative="1" as="geometry">
            <mxPoint x="-110" y="1660" as="targetPoint" />
          </mxGeometry>
        </mxCell>
        <mxCell id="DbwWn1ZqxJle5tNyQNrk-52" value="Palestrante 1&lt;br&gt;Palestrante 2&lt;br&gt;Palestrante 3" style="rounded=0;whiteSpace=wrap;html=1;" vertex="1" parent="1">
          <mxGeometry x="-170" y="1520" width="120" height="60" as="geometry" />
        </mxCell>
        <mxCell id="DbwWn1ZqxJle5tNyQNrk-57" value="" style="edgeStyle=orthogonalEdgeStyle;rounded=0;orthogonalLoop=1;jettySize=auto;html=1;" edge="1" parent="1" source="DbwWn1ZqxJle5tNyQNrk-55">
          <mxGeometry relative="1" as="geometry">
            <mxPoint x="-110" y="1810" as="targetPoint" />
          </mxGeometry>
        </mxCell>
        <mxCell id="DbwWn1ZqxJle5tNyQNrk-55" value="Participante 1&lt;br&gt;Participante 2&lt;br&gt;Participante 3" style="rounded=0;whiteSpace=wrap;html=1;" vertex="1" parent="1">
          <mxGeometry x="-170" y="1670" width="120" height="60" as="geometry" />
        </mxCell>
        <mxCell id="DbwWn1ZqxJle5tNyQNrk-61" value="" style="edgeStyle=orthogonalEdgeStyle;rounded=0;orthogonalLoop=1;jettySize=auto;html=1;" edge="1" parent="1" source="DbwWn1ZqxJle5tNyQNrk-59">
          <mxGeometry relative="1" as="geometry">
            <mxPoint x="45" y="1880" as="targetPoint" />
          </mxGeometry>
        </mxCell>
        <mxCell id="DbwWn1ZqxJle5tNyQNrk-65" value="" style="edgeStyle=orthogonalEdgeStyle;rounded=0;orthogonalLoop=1;jettySize=auto;html=1;" edge="1" parent="1" source="DbwWn1ZqxJle5tNyQNrk-59">
          <mxGeometry relative="1" as="geometry">
            <mxPoint x="-255" y="1880" as="targetPoint" />
          </mxGeometry>
        </mxCell>
        <mxCell id="DbwWn1ZqxJle5tNyQNrk-59" value="Quantidade de participantes é inferior a 100" style="strokeWidth=2;html=1;shape=mxgraph.flowchart.decision;whiteSpace=wrap;" vertex="1" parent="1">
          <mxGeometry x="-160" y="1820" width="110" height="120" as="geometry" />
        </mxCell>
        <mxCell id="DbwWn1ZqxJle5tNyQNrk-62" value="Cadastro não permitido. Limite de participantes excedido" style="strokeWidth=2;html=1;shape=mxgraph.flowchart.display;whiteSpace=wrap;" vertex="1" parent="1">
          <mxGeometry x="50" y="1850" width="120" height="60" as="geometry" />
        </mxCell>
        <mxCell id="DbwWn1ZqxJle5tNyQNrk-63" value="Não" style="text;html=1;align=center;verticalAlign=middle;resizable=0;points=[];autosize=1;strokeColor=none;fillColor=none;" vertex="1" parent="1">
          <mxGeometry x="-20" y="1850" width="40" height="20" as="geometry" />
        </mxCell>
        <mxCell id="DbwWn1ZqxJle5tNyQNrk-69" value="" style="edgeStyle=orthogonalEdgeStyle;rounded=0;orthogonalLoop=1;jettySize=auto;html=1;" edge="1" parent="1" source="DbwWn1ZqxJle5tNyQNrk-66">
          <mxGeometry relative="1" as="geometry">
            <mxPoint x="-310" y="1990" as="targetPoint" />
          </mxGeometry>
        </mxCell>
        <mxCell id="DbwWn1ZqxJle5tNyQNrk-66" value="Cadastro realizado." style="strokeWidth=2;html=1;shape=mxgraph.flowchart.display;whiteSpace=wrap;" vertex="1" parent="1">
          <mxGeometry x="-360" y="1850" width="100" height="60" as="geometry" />
        </mxCell>
        <mxCell id="DbwWn1ZqxJle5tNyQNrk-67" value="Sim" style="text;html=1;align=center;verticalAlign=middle;resizable=0;points=[];autosize=1;strokeColor=none;fillColor=none;" vertex="1" parent="1">
          <mxGeometry x="-220" y="1850" width="40" height="20" as="geometry" />
        </mxCell>
        <mxCell id="DbwWn1ZqxJle5tNyQNrk-70" value="Fim" style="strokeWidth=2;html=1;shape=mxgraph.flowchart.start_1;whiteSpace=wrap;" vertex="1" parent="1">
          <mxGeometry x="-360" y="2000" width="100" height="60" as="geometry" />
        </mxCell>
        <mxCell id="DbwWn1ZqxJle5tNyQNrk-72" value="Sim" style="text;html=1;align=center;verticalAlign=middle;resizable=0;points=[];autosize=1;strokeColor=none;fillColor=none;" vertex="1" parent="1">
          <mxGeometry x="-10" y="1360" width="40" height="20" as="geometry" />
        </mxCell>
      </root>
    </mxGraphModel>
  </diagram>
</mxfile>
